#tb 0: 1/25
#media_type 0: video
#codec_id 0: rawvideo
#dimensions 0: 5x32
#sar 0: 1/1
0,          0,          0,        1,      480, 0xe8a1f302
0,          1,          1,        1,      480, 0x0789f31c
0,          2,          2,        1,      480, 0x113af329
